<svg width="20" height="18" viewBox="0 0 20 18" fill="none" xmlns="http://www.w3.org/2000/svg">
<path d="M19.1654 9L17.132 6.675L17.4154 3.6L14.407 2.91667L12.832 0.25L9.9987 1.46667L7.16536 0.25L5.59036 2.90833L2.58203 3.58333L2.86536 6.66667L0.832031 9L2.86536 11.325L2.58203 14.4083L5.59036 15.0917L7.16536 17.75L9.9987 16.525L12.832 17.7417L14.407 15.0833L17.4154 14.4L17.132 11.325L19.1654 9ZM7.81536 12.3417L5.83203 10.3417C5.75478 10.2646 5.69349 10.173 5.65167 10.0722C5.60985 9.97138 5.58833 9.86331 5.58833 9.75417C5.58833 9.64503 5.60985 9.53696 5.65167 9.43615C5.69349 9.33533 5.75478 9.24376 5.83203 9.16667L5.89036 9.10833C6.21536 8.78333 6.7487 8.78333 7.0737 9.10833L8.41536 10.4583L12.707 6.15833C13.032 5.83333 13.5654 5.83333 13.8904 6.15833L13.9487 6.21667C14.2737 6.54167 14.2737 7.06667 13.9487 7.39167L9.01536 12.3417C8.6737 12.6667 8.1487 12.6667 7.81536 12.3417Z" fill="#147BFF"/>
</svg>
